<svg xmlns="http://www.w3.org/2000/svg" version="1.1" xmlns:xlink="http://www.w3.org/1999/xlink" xmlns:svgjs="http://svgjs.dev/svgjs" width="2561" height="1440" preserveAspectRatio="none" viewBox="0 0 2561 1440"><g mask="url(&quot;#SvgjsMask15396&quot;)" fill="none"><rect width="2561" height="1440" x="0" y="0" fill="rgba(158, 179, 132, 0.1)"></rect><path d="M2097.45 982.36L2091.93 993.91 2079.44 991.05 2073.92 1002.6 2061.43 999.75 2055.9 1011.3 2043.42 1008.44M2093.98 975.15L2088.45 986.7 2075.96 983.85 2070.44 995.4 2057.95 992.54 2052.43 1004.09 2039.94 1001.24" stroke="rgba(239, 142, 173, 1)" stroke-width="2.63"></path><path d="M1236.53 410.82a5.6 5.6 0 1 0-11.16-0.97 5.6 5.6 0 1 0 11.16 0.97zM1220.59 409.44a5.6 5.6 0 1 0-11.16-0.97 5.6 5.6 0 1 0 11.16 0.97zM1204.65 408.05a5.6 5.6 0 1 0-11.16-0.96 5.6 5.6 0 1 0 11.16 0.96zM1188.71 406.67a5.6 5.6 0 1 0-11.16-0.97 5.6 5.6 0 1 0 11.16 0.97zM1269.79 397.65a5.6 5.6 0 1 0-11.15-0.97 5.6 5.6 0 1 0 11.15 0.97zM1253.85 396.26a5.6 5.6 0 1 0-11.15-0.96 5.6 5.6 0 1 0 11.15 0.96zM1237.91 394.88a5.6 5.6 0 1 0-11.15-0.97 5.6 5.6 0 1 0 11.15 0.97zM1221.97 393.5a5.6 5.6 0 1 0-11.15-0.97 5.6 5.6 0 1 0 11.15 0.97z" stroke="rgba(250, 241, 228, 1)" stroke-width="2.21" stroke-dasharray="4, 4"></path><circle r="120" cx="1055.67" cy="286.98" stroke="rgba(206, 222, 189, 1)" stroke-width="2.95"></circle><rect width="379.52" height="379.52" clip-path="url(&quot;#SvgjsClipPath15397&quot;)" x="1258.54" y="25.99" fill="url(&quot;#SvgjsPattern15398&quot;)" transform="rotate(63.18, 1448.3, 215.75)"></rect><rect width="912" height="912" clip-path="url(&quot;#SvgjsClipPath15399&quot;)" x="1208.22" y="426.22" fill="url(&quot;#SvgjsPattern15400&quot;)" transform="rotate(76.68, 1664.22, 882.22)"></rect><path d="M485.32 1370.18L494.25 1379.35 487.25 1390.08 496.18 1399.26 489.19 1409.99 498.12 1419.17 491.13 1429.89" stroke="rgba(67, 83, 52, 1)" stroke-width="1" stroke-dasharray="2, 2"></path><rect width="476.52" height="476.52" clip-path="url(&quot;#SvgjsClipPath15401&quot;)" x="732.6" y="397.81" fill="url(&quot;#SvgjsPattern15402&quot;)" transform="rotate(25.73, 970.86, 636.07)"></rect><path d="M701.5 570.64 L963.96 295.53L570.4623116593106 170.81731165931052z" stroke="rgba(67, 83, 52, 1)" stroke-width="1.7" stroke-dasharray="3, 2"></path><rect width="116.2" height="116.2" clip-path="url(&quot;#SvgjsClipPath15403&quot;)" x="200.29" y="331.74" fill="url(&quot;#SvgjsPattern15404&quot;)" transform="rotate(196.05, 258.39, 389.84)"></rect></g><defs><mask id="SvgjsMask15396"><rect width="2561" height="1440" fill="#ffffff"></rect></mask><pattern x="0" y="0" width="11.86" height="11.86" patternUnits="userSpaceOnUse" id="SvgjsPattern15398"><path d="M0 11.86L5.93 0L11.86 11.86" stroke="rgba(250, 241, 228, 1)" fill="none"></path></pattern><clipPath id="SvgjsClipPath15397"><circle r="94.88" cx="1448.3" cy="215.75"></circle></clipPath><pattern x="0" y="0" width="912" height="6" patternUnits="userSpaceOnUse" id="SvgjsPattern15400"><rect width="912" height="3" x="0" y="0" fill="rgba(250, 241, 228, 1)"></rect><rect width="912" height="3" x="0" y="3" fill="rgba(0, 0, 0, 0)"></rect></pattern><clipPath id="SvgjsClipPath15399"><circle r="228" cx="1664.22" cy="882.22"></circle></clipPath><pattern x="0" y="0" width="476.52" height="12.54" patternUnits="userSpaceOnUse" id="SvgjsPattern15402"><rect width="476.52" height="6.27" x="0" y="0" fill="rgba(206, 222, 189, 1)"></rect><rect width="476.52" height="6.27" x="0" y="6.27" fill="rgba(0, 0, 0, 0)"></rect></pattern><clipPath id="SvgjsClipPath15401"><circle r="119.13" cx="970.86" cy="636.07"></circle></clipPath><pattern x="0" y="0" width="116.2" height="11.62" patternUnits="userSpaceOnUse" id="SvgjsPattern15404"><rect width="116.2" height="5.81" x="0" y="0" fill="rgba(239, 142, 173, 1)"></rect><rect width="116.2" height="5.81" x="0" y="5.81" fill="rgba(0, 0, 0, 0)"></rect></pattern><clipPath id="SvgjsClipPath15403"><circle r="29.05" cx="258.39" cy="389.84"></circle></clipPath></defs></svg>