<svg xmlns="http://www.w3.org/2000/svg" version="1.1" xmlns:xlink="http://www.w3.org/1999/xlink" xmlns:svgjs="http://svgjs.dev/svgjs" width="2561" height="1440" preserveAspectRatio="none" viewBox="0 0 2561 1440"><g mask="url(&quot;#SvgjsMask15602&quot;)" fill="none"><rect width="2561" height="1440" x="0" y="0" fill="rgba(158, 179, 132, 0.1)"></rect><circle r="120" cx="2266.94" cy="643.01" stroke="rgba(67, 83, 52, 1)" stroke-width="2.48" stroke-dasharray="3, 2"></circle><path d="M1986.23 1217.35a5.6 5.6 0 1 0-3.36 10.68 5.6 5.6 0 1 0 3.36-10.68zM1981.43 1232.61a5.6 5.6 0 1 0-3.36 10.69 5.6 5.6 0 1 0 3.36-10.69zM1976.63 1247.87a5.6 5.6 0 1 0-3.36 10.69 5.6 5.6 0 1 0 3.36-10.69zM1971.82 1263.14a5.6 5.6 0 1 0-3.36 10.68 5.6 5.6 0 1 0 3.36-10.68zM1980.58 1182.02a5.6 5.6 0 1 0-3.36 10.69 5.6 5.6 0 1 0 3.36-10.69zM1975.78 1197.29a5.6 5.6 0 1 0-3.37 10.68 5.6 5.6 0 1 0 3.37-10.68zM1970.97 1212.55a5.6 5.6 0 1 0-3.36 10.68 5.6 5.6 0 1 0 3.36-10.68zM1966.17 1227.81a5.6 5.6 0 1 0-3.36 10.68 5.6 5.6 0 1 0 3.36-10.68zM1974.92 1146.7a5.6 5.6 0 1 0-3.36 10.68 5.6 5.6 0 1 0 3.36-10.68zM1970.12 1161.96a5.6 5.6 0 1 0-3.36 10.68 5.6 5.6 0 1 0 3.36-10.68zM1965.32 1177.22a5.6 5.6 0 1 0-3.36 10.68 5.6 5.6 0 1 0 3.36-10.68zM1960.51 1192.48a5.6 5.6 0 1 0-3.36 10.69 5.6 5.6 0 1 0 3.36-10.69z" stroke="rgba(250, 241, 228, 1)" stroke-width="2.66" stroke-dasharray="4, 4"></path><rect width="575.4" height="575.4" clip-path="url(&quot;#SvgjsClipPath15603&quot;)" x="490.6" y="1015.34" fill="url(&quot;#SvgjsPattern15604&quot;)" transform="rotate(114.32, 778.3, 1303.04)"></rect><path d="M2494.99 1038.84a5.6 5.6 0 1 0-0.74 11.17 5.6 5.6 0 1 0 0.74-11.17zM2493.94 1054.8a5.6 5.6 0 1 0-0.73 11.18 5.6 5.6 0 1 0 0.73-11.18zM2492.89 1070.77a5.6 5.6 0 1 0-0.73 11.17 5.6 5.6 0 1 0 0.73-11.17zM2491.85 1086.73a5.6 5.6 0 1 0-0.73 11.18 5.6 5.6 0 1 0 0.73-11.18zM2481.11 1005.86a5.6 5.6 0 1 0-0.73 11.17 5.6 5.6 0 1 0 0.73-11.17zM2480.07 1021.82a5.6 5.6 0 1 0-0.73 11.18 5.6 5.6 0 1 0 0.73-11.18zM2479.02 1037.79a5.6 5.6 0 1 0-0.73 11.18 5.6 5.6 0 1 0 0.73-11.18zM2477.97 1053.76a5.6 5.6 0 1 0-0.73 11.17 5.6 5.6 0 1 0 0.73-11.17zM2467.24 972.88a5.6 5.6 0 1 0-0.73 11.18 5.6 5.6 0 1 0 0.73-11.18zM2466.19 988.85a5.6 5.6 0 1 0-0.73 11.17 5.6 5.6 0 1 0 0.73-11.17zM2465.15 1004.81a5.6 5.6 0 1 0-0.73 11.18 5.6 5.6 0 1 0 0.73-11.18zM2464.1 1020.78a5.6 5.6 0 1 0-0.73 11.17 5.6 5.6 0 1 0 0.73-11.17z" fill="rgba(67, 83, 52, 1)"></path><rect width="182.84" height="182.84" clip-path="url(&quot;#SvgjsClipPath15605&quot;)" x="1994.63" y="458.13" fill="url(&quot;#SvgjsPattern15606&quot;)" transform="rotate(152.37, 2086.05, 549.55)"></rect><rect width="852.48" height="852.48" clip-path="url(&quot;#SvgjsClipPath15607&quot;)" x="944.19" y="-153.71" fill="url(&quot;#SvgjsPattern15608&quot;)" transform="rotate(200.66, 1370.43, 272.53)"></rect><path d="M717.16 609.7a5.6 5.6 0 1 0 5.28-9.88 5.6 5.6 0 1 0-5.28 9.88zM724.7 595.58a5.6 5.6 0 1 0 5.28-9.87 5.6 5.6 0 1 0-5.28 9.87zM732.25 581.47a5.6 5.6 0 1 0 5.27-9.87 5.6 5.6 0 1 0-5.27 9.87zM739.79 567.36a5.6 5.6 0 1 0 5.28-9.88 5.6 5.6 0 1 0-5.28 9.88z" stroke="rgba(207, 189, 222, 1)" stroke-width="1" stroke-dasharray="3, 2"></path><circle r="163.63951709326156" cx="730.54" cy="64.79" stroke="rgba(67, 83, 52, 1)" stroke-width="1.97" stroke-dasharray="2, 2"></circle><circle r="120" cx="1321.69" cy="54.88" fill="rgba(206, 222, 189, 1)"></circle></g><defs><mask id="SvgjsMask15602"><rect width="2561" height="1440" fill="#ffffff"></rect></mask><pattern x="0" y="0" width="575.4" height="13.7" patternUnits="userSpaceOnUse" id="SvgjsPattern15604"><rect width="575.4" height="6.85" x="0" y="0" fill="rgba(207, 189, 222, 1)"></rect><rect width="575.4" height="6.85" x="0" y="6.85" fill="rgba(0, 0, 0, 0)"></rect></pattern><clipPath id="SvgjsClipPath15603"><circle r="143.85" cx="778.3" cy="1303.04"></circle></clipPath><pattern x="0" y="0" width="13.06" height="13.06" patternUnits="userSpaceOnUse" id="SvgjsPattern15606"><path d="M0 13.06L6.53 0L13.06 13.06" stroke="rgba(207, 189, 222, 1)" fill="none"></path></pattern><clipPath id="SvgjsClipPath15605"><circle r="45.71" cx="2086.05" cy="549.55"></circle></clipPath><pattern x="0" y="0" width="6.66" height="6.66" patternUnits="userSpaceOnUse" id="SvgjsPattern15608"><path d="M3.33 1L3.33 5.66M1 3.33L5.66 3.33" stroke="rgba(207, 189, 222, 1)" fill="none" stroke-width="1.35"></path></pattern><clipPath id="SvgjsClipPath15607"><circle r="213.12" cx="1370.43" cy="272.53"></circle></clipPath></defs></svg>