<svg xmlns="http://www.w3.org/2000/svg" version="1.1" xmlns:xlink="http://www.w3.org/1999/xlink" xmlns:svgjs="http://svgjs.dev/svgjs" width="2561" height="1440" preserveAspectRatio="none" viewBox="0 0 2561 1440"><g mask="url(&quot;#SvgjsMask15612&quot;)" fill="none"><rect width="2561" height="1440" x="0" y="0" fill="rgba(158, 179, 132, 0.1)"></rect><path d="M613.62 504.27L626.02 507.49 625.6 520.29 637.99 523.51 637.57 536.3 649.97 539.52 649.55 552.32M607.22 509.06L619.61 512.28 619.19 525.08 631.59 528.3 631.17 541.09 643.56 544.31 643.14 557.11" stroke="rgba(67, 83, 52, 1)" stroke-width="1.09"></path><path d="M1188.36 222.6L1179.92 232.23 1168.67 226.12 1160.23 235.75 1148.98 229.64 1140.54 239.27 1129.29 233.15M1186.95 214.73L1178.51 224.36 1167.26 218.24 1158.83 227.88 1147.57 221.76 1139.14 231.39 1127.89 225.28M1185.54 206.85L1177.11 216.48 1165.86 210.37 1157.42 220 1146.17 213.89 1137.73 223.52 1126.48 217.4" stroke="rgba(67, 83, 52, 1)" stroke-width="1" stroke-dasharray="3, 3"></path><rect width="156" height="156" clip-path="url(&quot;#SvgjsClipPath15613&quot;)" x="1030.69" y="1323.08" fill="url(&quot;#SvgjsPattern15614&quot;)" transform="rotate(353.74, 1108.69, 1401.08)"></rect><rect width="860.56" height="860.56" clip-path="url(&quot;#SvgjsClipPath15615&quot;)" x="1508.57" y="188.98" fill="url(&quot;#SvgjsPattern15616&quot;)" transform="rotate(117.49, 1938.85, 619.26)"></rect><circle r="193.9378466305408" cx="2048.04" cy="428.71" stroke="rgba(67, 83, 52, 1)" stroke-width="1" stroke-dasharray="2, 2"></circle><path d="M2325.91 542.18L2336.74 549.02 2332.44 561.08 2343.26 567.92 2338.96 579.99 2349.79 586.83 2345.49 598.89M2318.35 544.79L2329.17 551.63 2324.88 563.69 2335.7 570.54 2331.4 582.6 2342.23 589.44 2337.93 601.5" stroke="rgba(67, 83, 52, 1)" stroke-width="1"></path><rect width="816" height="816" clip-path="url(&quot;#SvgjsClipPath15617&quot;)" x="1785.8" y="60.22" fill="url(&quot;#SvgjsPattern15618&quot;)" transform="rotate(84.41, 2193.8, 468.22)"></rect><circle r="230.57666899768378" cx="795.23" cy="1347.41" stroke="rgba(67, 83, 52, 1)" stroke-width="2.12" stroke-dasharray="3, 3"></circle><rect width="60" height="60" clip-path="url(&quot;#SvgjsClipPath15619&quot;)" x="1431.58" y="830.18" fill="url(&quot;#SvgjsPattern15620&quot;)" transform="rotate(69.59, 1461.58, 860.18)"></rect></g><defs><mask id="SvgjsMask15612"><rect width="2561" height="1440" fill="#ffffff"></rect></mask><pattern x="0" y="0" width="6" height="6" patternUnits="userSpaceOnUse" id="SvgjsPattern15614"><path d="M3 1L3 5M1 3L5 3" stroke="rgba(67, 83, 52, 1)" fill="none" stroke-width="1.53"></path></pattern><clipPath id="SvgjsClipPath15613"><circle r="39" cx="1108.69" cy="1401.08"></circle></clipPath><pattern x="0" y="0" width="6.94" height="6.94" patternUnits="userSpaceOnUse" id="SvgjsPattern15616"><path d="M3.47 1L3.47 5.94M1 3.47L5.94 3.47" stroke="rgba(67, 83, 52, 1)" fill="none" stroke-width="1.02"></path></pattern><clipPath id="SvgjsClipPath15615"><circle r="215.14" cx="1938.85" cy="619.26"></circle></clipPath><pattern x="0" y="0" width="6" height="6" patternUnits="userSpaceOnUse" id="SvgjsPattern15618"><path d="M3 1L3 5M1 3L5 3" stroke="rgba(250, 241, 228, 1)" fill="none" stroke-width="1.46"></path></pattern><clipPath id="SvgjsClipPath15617"><circle r="204" cx="2193.8" cy="468.22"></circle></clipPath><pattern x="0" y="0" width="6" height="6" patternUnits="userSpaceOnUse" id="SvgjsPattern15620"><path d="M3 1L3 5M1 3L5 3" stroke="rgba(250, 241, 228, 1)" fill="none" stroke-width="1.42"></path></pattern><clipPath id="SvgjsClipPath15619"><circle r="15" cx="1461.58" cy="860.18"></circle></clipPath></defs></svg>