<svg xmlns="http://www.w3.org/2000/svg" version="1.1" xmlns:xlink="http://www.w3.org/1999/xlink" xmlns:svgjs="http://svgjs.dev/svgjs" width="2561" height="1440" preserveAspectRatio="none" viewBox="0 0 2561 1440"><g mask="url(&quot;#SvgjsMask15779&quot;)" fill="none"><rect width="2561" height="1440" x="0" y="0" fill="rgba(148, 163, 121, 0.55)"></rect><rect width="772.2" height="772.2" clip-path="url(&quot;#SvgjsClipPath15780&quot;)" x="1095.61" y="68.55" fill="url(&quot;#SvgjsPattern15781&quot;)" transform="rotate(267.41, 1481.71, 454.65)"></rect><path d="M1754.3000000000002 1424.8500000000001 L1673.27 1418.97L1665.61764381153 1470.0773561884703z" stroke="rgba(206, 222, 189, 1)" stroke-width="1" stroke-dasharray="3, 2"></path><rect width="466.24" height="466.24" clip-path="url(&quot;#SvgjsClipPath15782&quot;)" x="-68.3" y="220.58" fill="url(&quot;#SvgjsPattern15783&quot;)" transform="rotate(43.38, 164.82, 453.7)"></rect><rect width="203.04" height="203.04" clip-path="url(&quot;#SvgjsClipPath15784&quot;)" x="1160.04" y="353.57" fill="url(&quot;#SvgjsPattern15785&quot;)" transform="rotate(295.71, 1261.56, 455.09)"></rect><rect width="279.36" height="279.36" clip-path="url(&quot;#SvgjsClipPath15786&quot;)" x="1411.33" y="640.59" fill="url(&quot;#SvgjsPattern15787&quot;)" transform="rotate(234.33, 1551.01, 780.27)"></rect><rect width="60" height="60" clip-path="url(&quot;#SvgjsClipPath15788&quot;)" x="1236.51" y="463.57" fill="url(&quot;#SvgjsPattern15789&quot;)" transform="rotate(267.69, 1266.51, 493.57)"></rect><circle r="120" cx="167.5" cy="903.93" fill="rgba(250, 241, 228, 1)"></circle><path d="M2464.58 382.63 L2072.84 651.9200000000001L2072.7359748020895 321.3009748020895z" stroke="rgba(250, 241, 228, 1)" stroke-width="1.73" stroke-dasharray="2, 2"></path><path d="M1674.43 1153.78L1665.21 1144.9 1671.85 1133.95 1662.62 1125.06 1669.26 1114.11 1660.04 1105.23 1666.68 1094.28" stroke="rgba(206, 222, 189, 1)" stroke-width="2.77" stroke-dasharray="3, 3"></path></g><defs><mask id="SvgjsMask15779"><rect width="2561" height="1440" fill="#ffffff"></rect></mask><pattern x="0" y="0" width="9.9" height="9.9" patternUnits="userSpaceOnUse" id="SvgjsPattern15781"><path d="M4.95 1L4.95 8.9M1 4.95L8.9 4.95" stroke="rgba(67, 83, 52, 1)" fill="none" stroke-width="1"></path></pattern><clipPath id="SvgjsClipPath15780"><circle r="193.05" cx="1481.71" cy="454.65"></circle></clipPath><pattern x="0" y="0" width="466.24" height="7.52" patternUnits="userSpaceOnUse" id="SvgjsPattern15783"><rect width="466.24" height="3.76" x="0" y="0" fill="rgba(67, 83, 52, 1)"></rect><rect width="466.24" height="3.76" x="0" y="3.76" fill="rgba(0, 0, 0, 0)"></rect></pattern><clipPath id="SvgjsClipPath15782"><circle r="116.56" cx="164.82" cy="453.7"></circle></clipPath><pattern x="0" y="0" width="203.04" height="8.46" patternUnits="userSpaceOnUse" id="SvgjsPattern15785"><rect width="203.04" height="4.23" x="0" y="0" fill="rgba(206, 222, 189, 1)"></rect><rect width="203.04" height="4.23" x="0" y="4.23" fill="rgba(0, 0, 0, 0)"></rect></pattern><clipPath id="SvgjsClipPath15784"><circle r="50.76" cx="1261.56" cy="455.09"></circle></clipPath><pattern x="0" y="0" width="279.36" height="11.64" patternUnits="userSpaceOnUse" id="SvgjsPattern15787"><rect width="279.36" height="5.82" x="0" y="0" fill="rgba(250, 241, 228, 1)"></rect><rect width="279.36" height="5.82" x="0" y="5.82" fill="rgba(0, 0, 0, 0)"></rect></pattern><clipPath id="SvgjsClipPath15786"><circle r="69.84" cx="1551.01" cy="780.27"></circle></clipPath><pattern x="0" y="0" width="6" height="6" patternUnits="userSpaceOnUse" id="SvgjsPattern15789"><path d="M3 1L3 5M1 3L5 3" stroke="rgba(250, 241, 228, 1)" fill="none" stroke-width="1.98"></path></pattern><clipPath id="SvgjsClipPath15788"><circle r="15" cx="1266.51" cy="493.57"></circle></clipPath></defs></svg>