<svg xmlns="http://www.w3.org/2000/svg" version="1.1" xmlns:xlink="http://www.w3.org/1999/xlink" xmlns:svgjs="http://svgjs.dev/svgjs" width="2561" height="1440" preserveAspectRatio="none" viewBox="0 0 2561 1440"><g mask="url(&quot;#SvgjsMask15965&quot;)" fill="none"><rect width="816" height="816" clip-path="url(&quot;#SvgjsClipPath15966&quot;)" x="787.13" y="324.52" fill="url(&quot;#SvgjsPattern15967&quot;)" transform="rotate(225.83, 1195.13, 732.52)"></rect><path d="M710.57 620.37a5.6 5.6 0 1 0 9.22 6.36 5.6 5.6 0 1 0-9.22-6.36zM723.74 629.45a5.6 5.6 0 1 0 9.22 6.36 5.6 5.6 0 1 0-9.22-6.36zM736.91 638.54a5.6 5.6 0 1 0 9.22 6.35 5.6 5.6 0 1 0-9.22-6.35zM750.09 647.62a5.6 5.6 0 1 0 9.22 6.36 5.6 5.6 0 1 0-9.22-6.36zM675.14 615.38a5.6 5.6 0 1 0 9.22 6.35 5.6 5.6 0 1 0-9.22-6.35zM688.32 624.46a5.6 5.6 0 1 0 9.22 6.36 5.6 5.6 0 1 0-9.22-6.36zM701.49 633.54a5.6 5.6 0 1 0 9.22 6.36 5.6 5.6 0 1 0-9.22-6.36zM714.66 642.63a5.6 5.6 0 1 0 9.22 6.35 5.6 5.6 0 1 0-9.22-6.35zM639.72 610.38a5.6 5.6 0 1 0 9.22 6.36 5.6 5.6 0 1 0-9.22-6.36zM652.89 619.46a5.6 5.6 0 1 0 9.22 6.36 5.6 5.6 0 1 0-9.22-6.36zM666.06 628.55a5.6 5.6 0 1 0 9.22 6.36 5.6 5.6 0 1 0-9.22-6.36zM679.23 637.63a5.6 5.6 0 1 0 9.22 6.36 5.6 5.6 0 1 0-9.22-6.36z" stroke="rgba(42, 42, 42, 1)" stroke-width="1" stroke-dasharray="4, 4"></path><path d="M1147.05 1431.65 L1258.03 1432.3400000000001L1267.378045415059 1367.156954584941z" fill="rgba(255, 255, 255, 1)"></path><path d="M2591.15 1438.82 L2875 1486.22L2866.032921393037 1329.5620786069626z" fill="rgba(42, 42, 42, 1)"></path><circle r="120" cx="2194.26" cy="206.03" fill="rgba(42, 42, 42, 1)"></circle><circle r="120" cx="24.86" cy="253.25" fill="rgba(109, 109, 109, 1)"></circle><path d="M2880.6 1435.06 L2817.76 1114.1599999999999L2642.986946576305 1480.8030534236952z" fill="rgba(109, 109, 109, 1)"></path><circle r="138.84741337197607" cx="2384.77" cy="1124.67" stroke="rgba(109, 109, 109, 1)" stroke-width="2.12"></circle><rect width="588" height="588" clip-path="url(&quot;#SvgjsClipPath15968&quot;)" x="1433.17" y="-216.97" fill="url(&quot;#SvgjsPattern15969&quot;)" transform="rotate(18.19, 1727.17, 77.03)"></rect></g><defs><mask id="SvgjsMask15965"><rect width="2561" height="1440" fill="#ffffff"></rect></mask><pattern x="0" y="0" width="6" height="6" patternUnits="userSpaceOnUse" id="SvgjsPattern15967"><path d="M0 6L3 0L6 6" stroke="rgba(109, 109, 109, 1)" fill="none"></path></pattern><clipPath id="SvgjsClipPath15966"><circle r="204" cx="1195.13" cy="732.52"></circle></clipPath><pattern x="0" y="0" width="588" height="6" patternUnits="userSpaceOnUse" id="SvgjsPattern15969"><rect width="588" height="3" x="0" y="0" fill="rgba(42, 42, 42, 1)"></rect><rect width="588" height="3" x="0" y="3" fill="rgba(0, 0, 0, 0)"></rect></pattern><clipPath id="SvgjsClipPath15968"><circle r="147" cx="1727.17" cy="77.03"></circle></clipPath></defs></svg>