<svg xmlns="http://www.w3.org/2000/svg" version="1.1" xmlns:xlink="http://www.w3.org/1999/xlink" xmlns:svgjs="http://svgjs.dev/svgjs" width="2561" height="1440" preserveAspectRatio="none" viewBox="0 0 2561 1440"><g mask="url(&quot;#SvgjsMask15977&quot;)" fill="none"><circle r="120" cx="2388.15" cy="520.28" stroke="rgba(109, 109, 109, 1)" stroke-width="1"></circle><path d="M171.26 802.43a5.6 5.6 0 1 0-10.43-4.08 5.6 5.6 0 1 0 10.43 4.08zM156.36 796.6a5.6 5.6 0 1 0-10.43-4.08 5.6 5.6 0 1 0 10.43 4.08zM141.46 790.77a5.6 5.6 0 1 0-10.43-4.09 5.6 5.6 0 1 0 10.43 4.09zM126.57 784.93a5.6 5.6 0 1 0-10.43-4.08 5.6 5.6 0 1 0 10.43 4.08zM206.89 799.2a5.6 5.6 0 1 0-10.43-4.08 5.6 5.6 0 1 0 10.43 4.08zM191.99 793.37a5.6 5.6 0 1 0-10.43-4.09 5.6 5.6 0 1 0 10.43 4.09zM177.09 787.53a5.6 5.6 0 1 0-10.42-4.08 5.6 5.6 0 1 0 10.42 4.08zM162.2 781.7a5.6 5.6 0 1 0-10.43-4.08 5.6 5.6 0 1 0 10.43 4.08zM242.52 795.97a5.6 5.6 0 1 0-10.43-4.09 5.6 5.6 0 1 0 10.43 4.09zM227.62 790.13a5.6 5.6 0 1 0-10.42-4.08 5.6 5.6 0 1 0 10.42 4.08zM212.73 784.3a5.6 5.6 0 1 0-10.43-4.08 5.6 5.6 0 1 0 10.43 4.08zM197.83 778.47a5.6 5.6 0 1 0-10.43-4.08 5.6 5.6 0 1 0 10.43 4.08z" fill="rgba(42, 42, 42, 1)"></path><rect width="165.96" height="165.96" clip-path="url(&quot;#SvgjsClipPath15978&quot;)" x="1188.6" y="691.39" fill="url(&quot;#SvgjsPattern15979&quot;)" transform="rotate(57.05, 1271.58, 774.37)"></rect><path d="M834.21 661.79a5.6 5.6 0 1 0 7.79-8.05 5.6 5.6 0 1 0-7.79 8.05zM845.33 650.29a5.6 5.6 0 1 0 7.78-8.06 5.6 5.6 0 1 0-7.78 8.06zM856.45 638.78a5.6 5.6 0 1 0 7.78-8.05 5.6 5.6 0 1 0-7.78 8.05zM867.57 627.28a5.6 5.6 0 1 0 7.78-8.06 5.6 5.6 0 1 0-7.78 8.06zM823.48 695.92a5.6 5.6 0 1 0 7.78-8.05 5.6 5.6 0 1 0-7.78 8.05zM834.6 684.42a5.6 5.6 0 1 0 7.78-8.06 5.6 5.6 0 1 0-7.78 8.06zM845.72 672.91a5.6 5.6 0 1 0 7.78-8.05 5.6 5.6 0 1 0-7.78 8.05zM856.84 661.41a5.6 5.6 0 1 0 7.78-8.06 5.6 5.6 0 1 0-7.78 8.06z" stroke="rgba(255, 255, 255, 1)" stroke-width="1" stroke-dasharray="3, 2"></path><rect width="815.88" height="815.88" clip-path="url(&quot;#SvgjsClipPath15980&quot;)" x="-135.57" y="281.8" fill="url(&quot;#SvgjsPattern15981&quot;)" transform="rotate(273.07, 272.37, 689.74)"></rect><circle r="120" cx="608.77" cy="528.61" stroke="rgba(42, 42, 42, 1)" stroke-width="1"></circle><path d="M408.19 727.98 L241.12 604.14L187.723187240535 802.9918127594649z" stroke="rgba(255, 255, 255, 1)" stroke-width="1" stroke-dasharray="2, 2"></path><rect width="312.8" height="312.8" clip-path="url(&quot;#SvgjsClipPath15982&quot;)" x="403.34" y="4.05" fill="url(&quot;#SvgjsPattern15983&quot;)" transform="rotate(251.3, 559.74, 160.45)"></rect><rect width="816" height="816" clip-path="url(&quot;#SvgjsClipPath15984&quot;)" x="1471.81" y="810.89" fill="url(&quot;#SvgjsPattern15985&quot;)" transform="rotate(295.18, 1879.81, 1218.89)"></rect></g><defs><mask id="SvgjsMask15977"><rect width="2561" height="1440" fill="#ffffff"></rect></mask><pattern x="0" y="0" width="9.22" height="9.22" patternUnits="userSpaceOnUse" id="SvgjsPattern15979"><path d="M0 9.22L4.61 0L9.22 9.22" stroke="rgba(42, 42, 42, 1)" fill="none"></path></pattern><clipPath id="SvgjsClipPath15978"><circle r="41.49" cx="1271.58" cy="774.37"></circle></clipPath><pattern x="0" y="0" width="10.46" height="10.46" patternUnits="userSpaceOnUse" id="SvgjsPattern15981"><path d="M5.23 1L5.23 9.46M1 5.23L9.46 5.23" stroke="rgba(255, 255, 255, 1)" fill="none" stroke-width="1"></path></pattern><clipPath id="SvgjsClipPath15980"><circle r="203.97" cx="272.37" cy="689.74"></circle></clipPath><pattern x="0" y="0" width="6.8" height="6.8" patternUnits="userSpaceOnUse" id="SvgjsPattern15983"><path d="M0 6.8L3.4 0L6.8 6.8" stroke="rgba(255, 255, 255, 1)" fill="none"></path></pattern><clipPath id="SvgjsClipPath15982"><circle r="78.2" cx="559.74" cy="160.45"></circle></clipPath><pattern x="0" y="0" width="6" height="6" patternUnits="userSpaceOnUse" id="SvgjsPattern15985"><path d="M0 6L3 0L6 6" stroke="rgba(109, 109, 109, 1)" fill="none"></path></pattern><clipPath id="SvgjsClipPath15984"><circle r="204" cx="1879.81" cy="1218.89"></circle></clipPath></defs></svg>