<svg xmlns="http://www.w3.org/2000/svg" version="1.1" xmlns:xlink="http://www.w3.org/1999/xlink" xmlns:svgjs="http://svgjs.dev/svgjs" width="2561" height="1440" preserveAspectRatio="none" viewBox="0 0 2561 1440"><g mask="url(&quot;#SvgjsMask15303&quot;)" fill="none"><rect width="2561" height="1440" x="0" y="0" fill="rgba(158, 179, 132, 0.1)"></rect><rect width="498.24" height="498.24" clip-path="url(&quot;#SvgjsClipPath15304&quot;)" x="-161.81" y="396.37" fill="url(&quot;#SvgjsPattern15305&quot;)" transform="rotate(144.21, 87.31, 645.49)"></rect><rect width="658" height="658" clip-path="url(&quot;#SvgjsClipPath15306&quot;)" x="660.29" y="1061.1" fill="url(&quot;#SvgjsPattern15307&quot;)" transform="rotate(46.55, 989.29, 1390.1)"></rect><circle r="120" cx="205.83" cy="1014.51" fill="rgba(206, 222, 189, 1)"></circle><rect width="423" height="423" clip-path="url(&quot;#SvgjsClipPath15308&quot;)" x="1893.16" y="1050.75" fill="url(&quot;#SvgjsPattern15309&quot;)" transform="rotate(18.75, 2104.66, 1262.25)"></rect><circle r="120" cx="100.85" cy="193.21" stroke="rgba(206, 222, 189, 1)" stroke-width="1.46" stroke-dasharray="4, 4"></circle><path d="M2078.65 953.33 L1979.05 1358.03L1737.1576683279177 863.9876683279178z" fill="rgba(250, 241, 228, 1)"></path><rect width="372" height="372" clip-path="url(&quot;#SvgjsClipPath15310&quot;)" x="70.02" y="616.88" fill="url(&quot;#SvgjsPattern15311&quot;)" transform="rotate(191.38, 256.02, 802.88)"></rect><rect width="803.6" height="803.6" clip-path="url(&quot;#SvgjsClipPath15312&quot;)" x="1347.02" y="349.89" fill="url(&quot;#SvgjsPattern15313&quot;)" transform="rotate(296.79, 1748.82, 751.69)"></rect><rect width="316.2" height="316.2" clip-path="url(&quot;#SvgjsClipPath15314&quot;)" x="1071.18" y="320.02" fill="url(&quot;#SvgjsPattern15315&quot;)" transform="rotate(51.41, 1229.28, 478.12)"></rect></g><defs><mask id="SvgjsMask15303"><rect width="2561" height="1440" fill="#ffffff"></rect></mask><pattern x="0" y="0" width="13.84" height="13.84" patternUnits="userSpaceOnUse" id="SvgjsPattern15305"><path d="M6.92 1L6.92 12.84M1 6.92L12.84 6.92" stroke="rgba(250, 241, 228, 1)" fill="none" stroke-width="4.21"></path></pattern><clipPath id="SvgjsClipPath15304"><circle r="124.56" cx="87.31" cy="645.49"></circle></clipPath><pattern x="0" y="0" width="658" height="7" patternUnits="userSpaceOnUse" id="SvgjsPattern15307"><rect width="658" height="3.5" x="0" y="0" fill="rgba(206, 222, 189, 1)"></rect><rect width="658" height="3.5" x="0" y="3.5" fill="rgba(0, 0, 0, 0)"></rect></pattern><clipPath id="SvgjsClipPath15306"><circle r="164.5" cx="989.29" cy="1390.1"></circle></clipPath><pattern x="0" y="0" width="423" height="8.46" patternUnits="userSpaceOnUse" id="SvgjsPattern15309"><rect width="423" height="4.23" x="0" y="0" fill="rgba(67, 83, 52, 1)"></rect><rect width="423" height="4.23" x="0" y="4.23" fill="rgba(0, 0, 0, 0)"></rect></pattern><clipPath id="SvgjsClipPath15308"><circle r="105.75" cx="2104.66" cy="1262.25"></circle></clipPath><pattern x="0" y="0" width="372" height="6" patternUnits="userSpaceOnUse" id="SvgjsPattern15311"><rect width="372" height="3" x="0" y="0" fill="rgba(67, 83, 52, 1)"></rect><rect width="372" height="3" x="0" y="3" fill="rgba(0, 0, 0, 0)"></rect></pattern><clipPath id="SvgjsClipPath15310"><circle r="93" cx="256.02" cy="802.88"></circle></clipPath><pattern x="0" y="0" width="11.48" height="11.48" patternUnits="userSpaceOnUse" id="SvgjsPattern15313"><path d="M0 11.48L5.74 0L11.48 11.48" stroke="rgba(67, 83, 52, 1)" fill="none"></path></pattern><clipPath id="SvgjsClipPath15312"><circle r="200.9" cx="1748.82" cy="751.69"></circle></clipPath><pattern x="0" y="0" width="10.54" height="10.54" patternUnits="userSpaceOnUse" id="SvgjsPattern15315"><path d="M5.27 1L5.27 9.54M1 5.27L9.54 5.27" stroke="rgba(250, 241, 228, 1)" fill="none" stroke-width="2.84"></path></pattern><clipPath id="SvgjsClipPath15314"><circle r="79.05" cx="1229.28" cy="478.12"></circle></clipPath></defs></svg>