<svg width="256" height="256" viewBox="0 0 256 256" fill="none" xmlns="http://www.w3.org/2000/svg">
<path d="M217.15 9.5021H162.512V8.18421C162.512 4.44129 159.478 1.40649 155.735 1.40649H99.9786C96.2357 1.40649 93.2009 4.44129 93.2009 8.18421V9.5021H38.5632C34.8203 9.5021 31.7855 12.5369 31.7855 16.2798V43.0479C31.7855 46.7908 34.8203 49.8256 38.5632 49.8256H217.15C220.893 49.8256 223.928 46.7908 223.928 43.0479V16.2798C223.928 12.5369 220.893 9.5021 217.15 9.5021Z" fill="white"/>
<path d="M206.967 63.5608H48.7467C45.0038 63.5608 41.969 66.5956 41.969 70.3385V247.529C41.969 251.272 45.0038 254.306 48.7467 254.306H206.967C210.709 254.306 213.744 251.272 213.744 247.529V70.3385C213.744 66.5956 210.709 63.5608 206.967 63.5608ZM95.6625 229.916C95.6625 233.659 92.6277 236.693 88.8848 236.693H82.5763C78.8334 236.693 75.7986 233.659 75.7986 229.916V87.9516C75.7986 84.2087 78.8334 81.1739 82.5763 81.1739H88.8848C92.6277 81.1739 95.6625 84.2087 95.6625 87.9516V229.916ZM137.79 229.916C137.79 233.659 134.755 236.693 131.012 236.693H124.704C120.961 236.693 117.926 233.659 117.926 229.916V87.9516C117.926 84.2087 120.961 81.1739 124.704 81.1739H131.012C134.755 81.1739 137.79 84.2087 137.79 87.9516V229.916ZM179.915 229.916C179.915 233.659 176.88 236.693 173.137 236.693H166.829C163.086 236.693 160.051 233.659 160.051 229.916V87.9516C160.051 84.2087 163.086 81.1739 166.829 81.1739H173.137C176.88 81.1739 179.915 84.2087 179.915 87.9516V229.916Z" fill="white"/>
</svg>
